<svg width="256" height="256" viewBox="0 0 256 256" fill="none" xmlns="http://www.w3.org/2000/svg">
  <defs>
    <linearGradient id="bloomPetalGrad" x1="32" y1="32" x2="224" y2="224" gradientUnits="userSpaceOnUse">
      <stop offset="0%" stop-color="#FFFFFF" />
      <stop offset="60%" stop-color="#E4E4E7" />
      <stop offset="100%" stop-color="#A1A1AA" />
    </linearGradient>
    <linearGradient id="bloomCenterGrad" x1="96" y1="96" x2="160" y2="160" gradientUnits="userSpaceOnUse">
      <stop offset="0%" stop-color="#FFFFFF" />
      <stop offset="100%" stop-color="#52525B" />
    </linearGradient>
  </defs>

  <!-- Primary Petals -->
  <path d="M128 48 C138 80 150 108 128 128 C106 108 118 80 128 48 Z" fill="url(#bloomPetalGrad)" />
  <path d="M128 208 C118 176 106 148 128 128 C150 148 138 176 128 208 Z" fill="url(#bloomPetalGrad)" />
  <path d="M208 128 C176 138 148 150 128 128 C148 106 176 118 208 128 Z" fill="url(#bloomPetalGrad)" />
  <path d="M48 128 C80 118 108 106 128 128 C108 150 80 138 48 128 Z" fill="url(#bloomPetalGrad)" />

  <!-- Diagonal Secondary Facets -->
  <path d="M184 72 C171 99 152 116 128 128 C140 104 157 85 184 72 Z" fill="url(#bloomPetalGrad)" opacity="0.7" />
  <path d="M72 72 C99 85 116 104 128 128 C104 116 85 99 72 72 Z" fill="url(#bloomPetalGrad)" opacity="0.7" />
  <path d="M184 184 C157 171 140 152 128 128 C152 140 171 157 184 184 Z" fill="url(#bloomPetalGrad)" opacity="0.7" />
  <path d="M72 184 C85 157 104 140 128 128 C116 152 99 171 72 184 Z" fill="url(#bloomPetalGrad)" opacity="0.7" />

  <!-- Inner Spark Core -->
  <circle cx="128" cy="128" r="16" fill="url(#bloomCenterGrad)" />
  <circle cx="128" cy="128" r="7" fill="#FFFFFF" />
</svg>
